# This file uses centimeters as units for non-parametric coordinates.

mtllib leaf.mtl
g default
v -0.303311 1.424298 0.014623
v -0.024159 1.738276 0.014623
v 0.024144 1.738276 0.014623
v 0.303311 1.424298 0.014623
v -0.303311 1.424298 -0.014623
v -0.024159 1.738276 -0.014623
v 0.024144 1.738276 -0.014623
v 0.303311 1.424298 -0.014623
v -0.433575 1.090964 -0.014623
v -0.024159 1.090964 -0.014623
v 0.024144 1.090964 -0.014623
v 0.433575 1.090964 -0.014623
v -0.432313 0.757631 -0.014623
v -0.024159 0.757631 -0.014623
v 0.024144 0.757631 -0.014623
v 0.432313 0.757631 -0.014623
v -0.248203 0.528168 -0.014623
v -0.024159 0.424298 -0.014623
v 0.024144 0.424298 -0.014623
v 0.248203 0.528168 -0.014623
v -0.248203 0.528168 0.014623
v -0.024159 0.424298 0.014623
v 0.024144 0.424298 0.014623
v 0.248203 0.528168 0.014623
v -0.432313 0.757631 0.014623
v -0.024159 0.757631 0.014623
v 0.024144 0.757631 0.014623
v 0.432313 0.757631 0.014623
v -0.433575 1.090964 0.014623
v -0.024159 1.090964 0.014623
v 0.024144 1.090964 0.014623
v 0.433575 1.090964 0.014623
v -0.024159 -0.000614 -0.014623
v 0.024144 -0.000614 -0.014623
v 0.024144 -0.000614 0.014623
v -0.024159 -0.000614 0.014623
vt 0.375000 0.000000
vt 0.458333 0.000000
vt 0.541667 0.000000
vt 0.625000 0.000000
vt 0.375000 0.250000
vt 0.458333 0.250000
vt 0.541667 0.250000
vt 0.625000 0.250000
vt 0.375000 0.333333
vt 0.458333 0.333333
vt 0.541667 0.333333
vt 0.625000 0.333333
vt 0.375000 0.416667
vt 0.458333 0.416667
vt 0.541667 0.416667
vt 0.625000 0.416667
vt 0.375000 0.500000
vt 0.458333 0.500000
vt 0.541667 0.500000
vt 0.625000 0.500000
vt 0.375000 0.750000
vt 0.458333 0.750000
vt 0.541667 0.750000
vt 0.625000 0.750000
vt 0.375000 0.833333
vt 0.458333 0.833333
vt 0.541667 0.833333
vt 0.625000 0.833333
vt 0.375000 0.916667
vt 0.458333 0.916667
vt 0.541667 0.916667
vt 0.625000 0.916667
vt 0.375000 1.000000
vt 0.458333 1.000000
vt 0.541667 1.000000
vt 0.625000 1.000000
vt 0.875000 0.000000
vt 0.791667 0.000000
vt 0.708333 0.000000
vt 0.875000 0.250000
vt 0.791667 0.250000
vt 0.708333 0.250000
vt 0.125000 0.000000
vt 0.208333 0.000000
vt 0.291667 0.000000
vt 0.125000 0.250000
vt 0.208333 0.250000
vt 0.291667 0.250000
vt 0.458333 0.500000
vt 0.541667 0.500000
vt 0.541667 0.750000
vt 0.458333 0.750000
vn -0.747337 0.664445 -0.000000
vn -0.692097 0.721805 -0.000000
vn -0.747337 0.664445 -0.000000
vn -0.692097 0.721805 -0.000000
vn 0.692081 0.721820 -0.000000
vn 0.692081 0.721820 -0.000000
vn 0.747321 0.664464 -0.000000
vn 0.747321 0.664464 -0.000000
vn 0.000000 -0.000000 -1.000000
vn 0.000000 0.000000 -1.000000
vn 0.000000 0.000000 -1.000000
vn 0.000000 0.000000 -1.000000
vn 0.000000 -0.000000 -1.000000
vn 0.000000 -0.000000 -1.000000
vn 0.000000 -0.000000 -1.000000
vn 0.000000 -0.000000 -1.000000
vn 0.000000 -0.000000 -1.000000
vn 0.000000 -0.000000 -1.000000
vn 0.000000 -0.000000 -1.000000
vn 0.000000 -0.000000 -1.000000
vn 0.000000 -0.000000 -1.000000
vn 0.000000 -0.000000 -1.000000
vn 0.000000 -0.000000 -1.000000
vn 0.000000 -0.000000 -1.000000
vn -0.420610 -0.907242 0.000000
vn -0.420610 -0.907242 0.000000
vn -0.420610 -0.907242 0.000000
vn -0.420610 -0.907242 0.000000
vn 0.000000 -1.000000 0.000000
vn 0.000000 -1.000000 0.000000
vn 0.000000 -1.000000 0.000000
vn 0.000000 -1.000000 0.000000
vn 0.420588 -0.907252 0.000000
vn 0.420588 -0.907252 0.000000
vn 0.420588 -0.907252 0.000000
vn 0.420588 -0.907252 0.000000
vn 0.000000 0.000000 1.000000
vn 0.000000 -0.000000 1.000000
vn 0.000000 -0.000000 1.000000
vn 0.000000 -0.000000 1.000000
vn 0.000000 0.000000 1.000000
vn 0.000000 0.000000 1.000000
vn 0.000000 0.000000 1.000000
vn 0.000000 0.000000 1.000000
vn 0.000000 0.000000 1.000000
vn 0.000000 0.000000 1.000000
vn 0.000000 0.000000 1.000000
vn 0.000000 0.000000 1.000000
vn 0.000000 0.000000 1.000000
vn 0.000000 0.000000 1.000000
vn 0.000000 0.000000 1.000000
vn 0.000000 0.000000 1.000000
vn 0.949805 -0.312843 0.000000
vn 0.779974 -0.625812 0.000001
vn 0.949805 -0.312843 0.000000
vn 0.779974 -0.625812 0.000000
vn 0.981788 0.189979 -0.000000
vn 0.981788 0.189979 -0.000001
vn 0.931405 0.363985 -0.000000
vn 0.931405 0.363985 -0.000001
vn -0.779974 -0.625812 0.000000
vn -0.949805 -0.312843 -0.000001
vn -0.779974 -0.625812 0.000001
vn -0.949805 -0.312843 0.000002
vn -0.981788 0.189979 -0.000001
vn -0.981788 0.189979 0.000001
vn -0.931405 0.363985 -0.000001
vn -0.931405 0.363985 -0.000000
vn 0.000000 -0.000000 -1.000000
vn 0.000000 -0.000000 -1.000000
vn 1.000000 0.000000 0.000000
vn 1.000000 0.000000 0.000000
vn 1.000000 0.000000 0.000000
vn 1.000000 0.000000 0.000000
vn 0.000000 0.000000 1.000000
vn 0.000000 0.000000 1.000000
vn -1.000000 0.000000 -0.000000
vn -1.000000 0.000000 -0.000000
vn -1.000000 0.000000 -0.000000
vn -1.000000 0.000000 -0.000000
s 1
g pCube1
usemtl initialShadingGroup
f 1/1/1 2/2/2 5/5/3
f 5/5/3 2/2/2 6/6/4
f 2/2/2 3/3/5 6/6/4
f 6/6/4 3/3/5 7/7/6
f 3/3/5 4/4/7 7/7/6
f 7/7/6 4/4/7 8/8/8
s 2
f 6/6/9 10/10/10 5/5/11
f 5/5/11 10/10/10 9/9/12
f 6/6/9 7/7/13 10/10/10
f 10/10/10 7/7/13 11/11/14
f 7/7/13 8/8/15 11/11/14
f 11/11/14 8/8/15 12/12/16
f 9/9/12 10/10/10 13/13/17
f 13/13/17 10/10/10 14/14/18
f 10/10/10 11/11/14 14/14/18
f 14/14/18 11/11/14 15/15/19
f 12/12/16 16/16/20 11/11/14
f 11/11/14 16/16/20 15/15/19
f 13/13/17 14/14/18 17/17/21
f 17/17/21 14/14/18 18/18/22
f 14/14/18 15/15/19 18/18/22
f 18/18/22 15/15/19 19/19/23
f 16/16/20 20/20/24 15/15/19
f 15/15/19 20/20/24 19/19/23
s 3
f 17/17/25 18/18/26 21/21/27
f 21/21/27 18/18/26 22/22/28
s 4
f 33/49/29 34/50/30 36/52/31
f 36/52/31 34/50/30 35/51/32
s 5
f 19/19/33 20/20/34 23/23/35
f 23/23/35 20/20/34 24/24/36
s 6
f 22/22/37 26/26/38 21/21/39
f 21/21/39 26/26/38 25/25/40
f 22/22/37 23/23/41 26/26/38
f 26/26/38 23/23/41 27/27/42
f 23/23/41 24/24/43 27/27/42
f 27/27/42 24/24/43 28/28/44
f 26/26/38 30/30/45 25/25/40
f 25/25/40 30/30/45 29/29/46
f 26/26/38 27/27/42 30/30/45
f 30/30/45 27/27/42 31/31/47
f 27/27/42 28/28/44 31/31/47
f 31/31/47 28/28/44 32/32/48
f 29/29/46 30/30/45 1/33/49
f 1/33/49 30/30/45 2/34/50
f 30/30/45 31/31/47 2/34/50
f 2/34/50 31/31/47 3/35/51
f 32/32/48 4/36/52 31/31/47
f 31/31/47 4/36/52 3/35/51
s 7
f 28/38/53 24/37/54 16/41/55
f 16/41/55 24/37/54 20/40/56
f 32/39/57 28/38/53 12/42/58
f 12/42/58 28/38/53 16/41/55
f 4/4/59 32/39/57 8/8/60
f 8/8/60 32/39/57 12/42/58
s 8
f 21/43/61 25/44/62 17/46/63
f 17/46/63 25/44/62 13/47/64
f 25/44/62 29/45/65 13/47/64
f 13/47/64 29/45/65 9/48/66
f 29/45/65 1/1/67 9/48/66
f 9/48/66 1/1/67 5/5/68
s 2
f 18/18/22 19/19/23 33/49/69
f 33/49/69 19/19/23 34/50/70
s 9
f 19/19/71 23/23/72 34/50/73
f 34/50/73 23/23/72 35/51/74
s 6
f 23/23/41 22/22/37 35/51/75
f 35/51/75 22/22/37 36/52/76
s 10
f 22/22/77 18/18/78 36/52/79
f 36/52/79 18/18/78 33/49/80
